# xmcd
#
# Track frame offsets: 
#        150
#        14961
#        30579
#        45333
#        58389
#        70900
#        85737
#        100883
#        115947
#        129891
#        142772
#        156737
#        171280
#        185343
#        197435
#        210183
#        225212
#        238491
#        251831
#        264814
#        277713
#        290481
#        305469
#
# Disc length: 4250 seconds
#
# Revision: 0
# Processed by: cddbd v1.5.2PL0 Copyright (c) Steve Scherf et al.
# Submitted via: ExactAudioCopy v0.95a3
#
DISCID=3e109817
DTITLE=Vol 4, 1934 - 1936 - Mississippi Sheiks and Chatmon Brothers
DYEAR=2008
DGENRE=Blues
TTITLE0=She`s got something crazy
TTITLE1=You`ll work down to me someday 
TTITLE2=Somebody`s got to help me
TTITLE3=Good morning blues
TTITLE4=Blues on my mind
TTITLE5=Lonesome grave took my baby
TTITLE6=Pop skull blues
TTITLE7=Sweet Maggie
TTITLE8=Sales tax
TTITLE9=It`s backfiring now
TTITLE10=Lean to one woman 
TTITLE11=I can`t go wrong
TTITLE12=Dead wagon blues
TTITLE13=She`s going to her lonesome grave
TTITLE14=Fingering with your finger 
TTITLE15=If you don`t want me please don`t dog me `round
TTITLE16=Wake me just before day
TTITLE17=Old grey mule, you ain`t what you used to be
TTITLE18=What`s the name of that thing?
TTITLE19=Stir it now
TTITLE20=Jumping out blues 
TTITLE21=Radio blues
TTITLE22=Please don`t give my love away
EXTD=
EXTT0=
EXTT1=
EXTT2=
EXTT3=
EXTT4=
EXTT5=
EXTT6=
EXTT7=
EXTT8=
EXTT9=
EXTT10=
EXTT11=
EXTT12=
EXTT13=
EXTT14=
EXTT15=
EXTT16=
EXTT17=
EXTT18=
EXTT19=
EXTT20=
EXTT21=
EXTT22=
PLAYORDER=
